<svg height="512" viewBox="0 0 128 128" width="512" xmlns="http://www.w3.org/2000/svg"><g id="Circle_Grid" data-name="Circle Grid"><circle cx="64" cy="64" fill="#3b5059" r="64"/></g><g id="icon"><path d="m105 59.019v45.819h-81.982l29.24-23.089-29.258-22.73 41-35.857z" fill="#eab54e"/><path d="m30.908 31.632h65.735v54.379h-65.735z" fill="#eeefee"/><path d="m75.742 81.749 29.24 23.089h.018v-45.819z" fill="#f6c863"/><path d="m52.258 81.749-29.24 23.089h-.018v-45.819z" fill="#f6c863"/><path d="m104.982 104.838h-81.964l29.239-23.089h23.486z" fill="#eab54e"/><path d="m70.3 69.531a15.676 15.676 0 0 1 -7.654 1.719c-7.053 0-13.03-5.159-13.03-13.415 0-8.858 6.15-16.511 15.7-16.511 7.48 0 12.511 5.246 12.511 12.427 0 6.449-3.611 10.232-7.654 10.232-1.719 0-3.31-1.161-3.183-3.783h-.172c-1.5 2.537-3.482 3.783-6.062 3.783-2.495 0-4.644-2.02-4.644-5.416a10.154 10.154 0 0 1 10.188-10.191 11.334 11.334 0 0 1 4.6.9l-1.462 7.783c-.646 3.268-.13 4.772 1.288 4.816 2.193.042 4.644-2.881 4.644-7.869 0-6.236-3.741-10.707-10.405-10.707-7.009 0-12.9 5.546-12.9 14.276 0 7.181 4.688 11.61 11.051 11.61a13.412 13.412 0 0 0 6.493-1.505zm-2.365-18.575a7.414 7.414 0 0 0 -2.15-.3c-3.785 0-6.838 3.569-6.838 7.739 0 1.892.947 3.268 2.838 3.268 2.495 0 4.774-3.183 5.246-5.847z" fill="#575b6d"/></g></svg>