<?xml version="1.0" encoding="utf-8"?>
<!-- Generator: Adobe Illustrator 22.1.0, SVG Export Plug-In . SVG Version: 6.00 Build 0)  -->
<svg xmlns="http://www.w3.org/2000/svg"
	xmlns:xlink="http://www.w3.org/1999/xlink" version="1.1" id="Layer_1" x="0px" y="0px" viewBox="0 0 256 256" style="enable-background:new 0 0 256 256;" xml:space="preserve" width="512" height="512">
	<style type="text/css">
	.st0{fill:#FFDF74;}
	.st1{fill:#FFD551;}
	.st2{fill:#F9BB32;}
	.st3{fill:#FFA730;}
	.st4{fill:#E58D23;}
	.st5{fill:#DB9C2E;}
	.st6{fill:#FFB74B;}
	.st7{fill:#BF6C0D;}
	.st8{fill:#A56021;}
	.st9{fill:#FFC34C;}
	.st10{fill:#CCC033;}
	.st11{fill:#FFF4C1;}
	.st12{fill:#FF624B;}
	.st13{fill:#FF4B34;}
	.st14{fill:#EACF32;}
	.st15{fill:#99AF17;}
	.st16{fill:#8C4C17;}
	.st17{fill:#FCE575;}
	.st18{fill:#FF9079;}
	.st19{fill:#FCF9DE;}
	.st20{fill:#FFD59A;}
	.st21{fill:#FFEACF;}
	.st22{fill:#FCDA4F;}
	</style>
	<g>
		<g>
			<g>
				<path class="st12" d="M215,248H41v-18.527c0-32.346,26.221-58.567,58.567-58.567h56.866c32.346,0,58.567,26.221,58.567,58.567     V248z"/>
			</g>
		</g>
		<g>
			<g>
				<path class="st13" d="M65.508,238.52c0-32.546,26.06-58.93,58.207-58.93h57.586c2.197,0,4.364,0.128,6.498,0.368     c-8.977-5.732-19.608-9.052-31.006-9.052H99.207C67.06,170.906,41,197.29,41,229.836V248h24.508V238.52z"/>
			</g>
		</g>
		<g>
			<g>
				<path class="st16" d="M78.259,114.355h19.829V42.331c0-6.615-5.362-11.977-11.977-11.977h-7.852     c-6.615,0-11.977,5.362-11.977,11.977v60.048C66.283,108.993,71.645,114.355,78.259,114.355z"/>
			</g>
		</g>
		<g>
			<g>
				<path class="st16" d="M178.096,24.181h-8.1c-6.546,0-11.853,5.373-11.853,12V46.63c12.827,9.66,21.138,25.123,21.138,42.552     v18.94c5.989-0.602,10.668-5.717,10.668-11.94V36.182C189.949,29.554,184.642,24.181,178.096,24.181z"/>
			</g>
		</g>
		<g>
			<g>
				<ellipse class="st21" cx="180.466" cy="93.737" rx="16.932" ry="17.142"/>
			</g>
		</g>
		<g>
			<g>
				<ellipse class="st20" cx="73.79" cy="99.94" rx="16.932" ry="17.142"/>
			</g>
		</g>
		<g>
			<g>
				<path class="st21" d="M128.032,203.302h-0.063c-13.301,0-24.084-10.783-24.084-24.084v-58.551h48.23v58.551     C152.115,192.52,141.333,203.302,128.032,203.302z"/>
			</g>
		</g>
		<g>
			<g>
				<path class="st20" d="M120.58,178.888v-58.219h-16.695v58.219c0,13.484,10.797,24.415,24.115,24.415l0,0     c2.935,0,5.746-0.532,8.348-1.504C127.144,198.36,120.58,189.4,120.58,178.888z"/>
			</g>
		</g>
		<g>
			<g>
				<path class="st21" d="M128.184,160.969h-0.137c-28.875,0-52.282-23.407-52.282-52.282v-28.42     c0-28.875,23.407-52.282,52.282-52.282h0.137c28.875,0,52.282,23.407,52.282,52.282v28.42     C180.466,137.561,157.059,160.969,128.184,160.969z"/>
			</g>
		</g>
		<g>
			<g>
				<path class="st20" d="M94.137,101.295V74.985c0-2.007,0.111-3.987,0.326-5.936c0.333-3.017,2.888-5.28,5.886-5.28h77.29     c-7.06-20.82-26.565-35.785-49.524-35.785c-2.248,0-4.46,0.148-6.633,0.426c0.003-0.002,0.006-0.004,0.01-0.006     c-0.168,0.021-0.332,0.053-0.499,0.076c-0.552,0.076-1.102,0.157-1.648,0.25c-0.265,0.045-0.527,0.097-0.791,0.146     c-0.484,0.09-0.965,0.185-1.444,0.289c-0.278,0.06-0.554,0.124-0.83,0.188c-0.466,0.109-0.929,0.225-1.391,0.347     c-0.27,0.071-0.54,0.142-0.809,0.218c-0.478,0.134-0.952,0.278-1.424,0.426c-0.241,0.075-0.483,0.147-0.723,0.226     c-0.566,0.186-1.126,0.385-1.684,0.589c-0.138,0.051-0.278,0.096-0.415,0.148c-0.693,0.262-1.379,0.538-2.057,0.828     c-0.177,0.076-0.35,0.158-0.526,0.236c-0.497,0.219-0.991,0.442-1.48,0.676c-0.245,0.117-0.486,0.24-0.728,0.361     c-0.416,0.207-0.829,0.417-1.238,0.635c-0.259,0.138-0.516,0.279-0.773,0.421c-0.388,0.215-0.774,0.435-1.156,0.66     c-0.256,0.151-0.512,0.302-0.766,0.457c-0.384,0.235-0.763,0.476-1.14,0.72c-0.238,0.154-0.478,0.306-0.714,0.465     c-0.416,0.279-0.824,0.567-1.232,0.857c-0.187,0.134-0.378,0.262-0.563,0.398c-0.576,0.422-1.144,0.856-1.703,1.301     c-0.174,0.139-0.341,0.284-0.513,0.425c-0.39,0.319-0.778,0.639-1.158,0.969c-0.227,0.197-0.449,0.4-0.672,0.601     c-0.317,0.284-0.633,0.57-0.943,0.862c-0.235,0.221-0.465,0.446-0.696,0.671c-0.291,0.284-0.578,0.571-0.863,0.862     c-0.23,0.235-0.458,0.471-0.684,0.71c-0.278,0.295-0.55,0.595-0.821,0.896c-0.218,0.242-0.437,0.483-0.65,0.73     c-0.279,0.321-0.55,0.65-0.821,0.978c-0.193,0.234-0.39,0.464-0.579,0.702c-0.397,0.498-0.784,1.004-1.163,1.517     c-0.197,0.266-0.387,0.537-0.578,0.807c-0.265,0.373-0.531,0.745-0.787,1.125c-0.188,0.279-0.367,0.563-0.55,0.845     c-0.213,0.33-0.426,0.66-0.632,0.996c-0.185,0.3-0.364,0.604-0.543,0.908c-0.192,0.327-0.382,0.656-0.568,0.988     c-0.175,0.313-0.347,0.626-0.515,0.943c-0.178,0.334-0.351,0.671-0.522,1.01c-0.162,0.319-0.324,0.638-0.479,0.961     c-0.169,0.351-0.33,0.707-0.491,1.063c-0.144,0.316-0.291,0.63-0.428,0.95c-0.185,0.431-0.359,0.868-0.534,1.305     c-0.19,0.476-0.373,0.955-0.549,1.438c-0.145,0.395-0.293,0.789-0.429,1.188h0.004c-1.831,5.399-2.831,11.189-2.831,17.216     v26.342c0,29.159,22.997,53.337,51.796,53.638c9.259,0.097,17.971-2.24,25.55-6.418c-2.286,0.292-4.617,0.436-6.985,0.42     C117.246,154.769,94.137,130.535,94.137,101.295z"/>
			</g>
		</g>
		<g>
			<g>
				<path class="st8" d="M160.254,55.969H72.88c-9.854,0-17.842-7.988-17.842-17.842V25.842C55.038,15.988,63.026,8,72.88,8h87.374     c9.854,0,17.842,7.988,17.842,17.842v12.286C178.096,47.981,170.108,55.969,160.254,55.969z"/>
			</g>
		</g>
		<g>
			<g>
				<g>
					<ellipse class="st8" cx="98.483" cy="94.477" rx="6.519" ry="6.6"/>
				</g>
			</g>
			<g>
				<g>
					<ellipse class="st8" cx="157.748" cy="94.477" rx="6.519" ry="6.6"/>
				</g>
			</g>
		</g>
		<g>
			<g>
				<circle class="st16" cx="90.722" cy="21.207" r="9"/>
			</g>
		</g>
		<g>
			<g>
				<path class="st16" d="M75.038,38.127V25.842C75.038,15.988,83.026,8,92.88,8h-20c-9.854,0-17.842,7.988-17.842,17.842v12.286     c0,9.854,7.988,17.842,17.842,17.842h20C83.026,55.969,75.038,47.981,75.038,38.127z"/>
			</g>
		</g>
		<g>
			<g>
				<rect x="119" y="187.825" class="st4" width="18" height="60"/>
			</g>
		</g>
		<g>
			<g>
				<path class="st3" d="M129,246.824c-1.657,0-3-1.343-3-3v-28.491c0-1.657,1.343-3,3-3s3,1.343,3,3v28.491     C132,245.481,130.657,246.824,129,246.824z"/>
			</g>
		</g>
		<g>
			<g>
				<path class="st7" d="M137,187.825l73.525-8.79c2.38-0.285,4.475,1.574,4.475,3.972V248l-78-0.175V187.825z"/>
			</g>
		</g>
		<g>
			<g>
				<path class="st7" d="M119,187.825l-73.525-8.79c-2.38-0.285-4.475,1.574-4.475,3.972V248l78-0.175V187.825z"/>
			</g>
		</g>
		<g>
			<g>
				<path class="st1" d="M56.858,180.431l12.947-4.667c0.788-0.284,1.628-0.4,2.464-0.34l48.312,3.463l1.594,0.025     c3.245,0.052,5.86,2.674,5.904,5.919l0.038,2.817L119,187.825L56.858,180.431z"/>
			</g>
		</g>
		<g>
			<g>
				<path class="st1" d="M199.163,180.431l-12.947-4.667c-0.788-0.284-1.628-0.4-2.464-0.34l-48.312,3.463l-1.594,0.025     c-3.245,0.052-5.86,2.674-5.904,5.919l-0.038,2.817l9.116,0.175L199.163,180.431z"/>
			</g>
		</g>
		<g>
			<g>
				<path class="st4" d="M144.667,205.576v17.886c0,4.795,4.913,8.513,10.496,7.943l44.568-4.542     c4.718-0.481,8.269-3.892,8.269-7.943v-17.886c0-4.795-4.913-8.513-10.496-7.943l-44.568,4.542     C148.218,198.114,144.667,201.525,144.667,205.576z"/>
			</g>
		</g>
		<g>
			<g>
				<path class="st8" d="M69,183.007c0-0.399,0.077-0.775,0.184-1.138l-23.71-2.834c-2.38-0.285-4.475,1.574-4.475,3.972V248     l28-0.063V183.007z"/>
			</g>
		</g>
		<g>
			<g>
				<circle class="st8" cx="82.184" cy="234.579" r="9"/>
			</g>
		</g>
	</g>
</svg>
